<svg version="1.1" id="Layer_1" 
    xmlns="http://www.w3.org/2000/svg" 
    xmlns:xlink="http://www.w3.org/1999/xlink" x="0px" y="0px" height="100%" width="100%" viewBox="0 0 291 291" enable-background="new 0 0 291 291;" xml:space="preserve">
    <path id="logo" fill="#0A2342" class="st0" d="M147.4,38.7c-58.2-1-107.1,45.3-109,103.5c-0.4,13,1.4,25.5,5.2,37.1l45.8-73.6l0.6-0.8
	C103,87.4,123.7,77,145.4,77c38,0,69,31,69,69s-31,69-69,69c-16.5,0-32.1-6-44.2-16.1l11.5-18.5c8.8,8.4,20.5,13.2,32.8,13.2
	c26.2,0,47.5-21.3,47.5-47.5s-21.3-47.5-47.5-47.5c-15,0-29.2,7.2-38.2,19.2l-0.1,0.1l-52.8,84.8c1.5,2.5,3.2,4.9,4.9,7.2l54.5-87.5
	c7.6-10.1,19.1-15.9,31.7-15.9c20.4,0,37.7,16,39.3,36.3c1.8,23.2-16.5,42.7-39.4,42.7c-10.7,0-21-4.4-28.5-12.1l10.4-16.9l1.7-2.8
	c3.5,7.5,12,11.9,20.5,9.9c7.6-1.8,13.2-8.5,13.7-16.3c0.7-10.5-7.6-19.2-18-19.2c-4.9,0-9.4,1.9-12.8,5.3c-0.7,0.7-1.3,1.6-1.9,2.4
	l-5.5,8.8h-0.1l-38,61.3l-12.8,20.5c19.5,17.3,45.3,27.5,73.5,26.9c57.6-1.3,104.3-48.6,104.8-106.2
	C253.3,87.9,206.1,39.7,147.4,38.7z"></path>
</svg>